#define hours_width 288
#define hours_height 24
static unsigned char hours_bits[] = {
   0x00, 0x00, 0x00, 0x00, 0x00, 0x00, 0x00, 0x00, 0x00, 0x00, 0x00, 0x00,
   0x00, 0x00, 0x00, 0x00, 0x00, 0x00, 0x00, 0x00, 0x00, 0x00, 0x00, 0x00,
   0x00, 0x00, 0x00, 0x00, 0x00, 0x00, 0x00, 0x00, 0x00, 0x00, 0x00, 0x00,
   0x00, 0x00, 0x00, 0x00, 0x00, 0x00, 0x00, 0x00, 0x00, 0x00, 0x00, 0x00,
   0x00, 0x00, 0x00, 0x00, 0x00, 0x00, 0x00, 0x00, 0x00, 0x00, 0x00, 0x00,
   0x00, 0x00, 0x00, 0x00, 0x30, 0x00, 0x00, 0x00, 0x00, 0x00, 0x00, 0x00,
   0x00, 0x00, 0x00, 0x00, 0x18, 0x00, 0x80, 0x07, 0x00, 0x00, 0x00, 0x00,
   0x00, 0x00, 0x00, 0xc0, 0x00, 0x00, 0x00, 0x18, 0x00, 0x00, 0x18, 0x00,
   0x00, 0x00, 0x00, 0x00, 0x30, 0x03, 0x00, 0x18, 0x00, 0x00, 0x00, 0x00,
   0xf8, 0xff, 0x0f, 0x00, 0x18, 0x00, 0xf8, 0xc3, 0x3f, 0xf8, 0xff, 0x3f,
   0xf8, 0xff, 0x0f, 0x60, 0x00, 0x00, 0x00, 0x18, 0x00, 0x00, 0x18, 0x00,
   0xfc, 0xff, 0x3f, 0x00, 0x30, 0x0e, 0x00, 0x18, 0x00, 0xf0, 0xff, 0x0f,
   0xf8, 0xff, 0x0f, 0xfc, 0xff, 0x3f, 0x38, 0xc0, 0x3f, 0x18, 0x00, 0x00,
   0xf8, 0xff, 0x0f, 0xe0, 0xff, 0x1f, 0x00, 0x18, 0x00, 0x00, 0x18, 0x00,
   0x00, 0x63, 0x00, 0x00, 0x30, 0x04, 0xfe, 0xff, 0x7f, 0x00, 0x00, 0x0f,
   0x00, 0x03, 0x0c, 0x0c, 0x00, 0x30, 0x18, 0xc0, 0x30, 0x18, 0x00, 0x00,
   0x18, 0x00, 0x0c, 0xf0, 0xff, 0x1f, 0xf8, 0xff, 0x1f, 0xf8, 0xff, 0x1f,
   0x00, 0x63, 0x00, 0xf8, 0xff, 0x3f, 0xfe, 0xff, 0x7f, 0x00, 0x80, 0x03,
   0x00, 0x03, 0x0e, 0x0c, 0x00, 0x30, 0x18, 0xc6, 0x30, 0x18, 0x00, 0x00,
   0x18, 0x00, 0x0c, 0x30, 0x30, 0x00, 0xf8, 0xff, 0x1f, 0xf8, 0xff, 0x1f,
   0x00, 0x63, 0x00, 0xf8, 0xff, 0x3f, 0x00, 0x07, 0x00, 0x00, 0xc0, 0x01,
   0x00, 0x03, 0x0e, 0xec, 0xff, 0x37, 0x18, 0xc6, 0x30, 0x98, 0xff, 0x0f,
   0x18, 0x00, 0x0c, 0x18, 0x30, 0x00, 0x00, 0x18, 0x00, 0x18, 0x18, 0x18,
   0xf8, 0xff, 0x1f, 0x18, 0x30, 0x00, 0x00, 0xc3, 0x01, 0x00, 0xe0, 0x00,
   0x00, 0x03, 0x06, 0xe0, 0xff, 0x07, 0x18, 0xc6, 0x30, 0x98, 0xff, 0x0f,
   0x18, 0x00, 0x0c, 0x1c, 0x30, 0x00, 0x00, 0x18, 0x00, 0x18, 0x18, 0x18,
   0xf8, 0xff, 0x1f, 0x18, 0x30, 0x00, 0x90, 0xc3, 0x00, 0x00, 0x70, 0x00,
   0x00, 0x03, 0x06, 0x00, 0x18, 0x00, 0x18, 0xc6, 0x30, 0x18, 0x00, 0x00,
   0x18, 0x00, 0x0c, 0x0c, 0x30, 0x00, 0x00, 0x18, 0x00, 0x18, 0x18, 0x18,
   0x18, 0x63, 0x18, 0x18, 0x30, 0x00, 0xf8, 0x61, 0x00, 0x00, 0x38, 0x00,
   0x00, 0x03, 0x06, 0x00, 0x18, 0x00, 0x18, 0xc6, 0x30, 0x18, 0x00, 0x00,
   0x18, 0x00, 0x0c, 0x00, 0x30, 0x00, 0x00, 0x18, 0x00, 0xf8, 0xff, 0x1f,
   0x18, 0x63, 0x18, 0x18, 0x30, 0x18, 0xe0, 0x70, 0x1c, 0x00, 0x18, 0x00,
   0x80, 0x03, 0x06, 0xf0, 0xff, 0x0f, 0x18, 0xc6, 0x30, 0xf8, 0xff, 0x7f,
   0xf8, 0xff, 0x0f, 0x00, 0x30, 0x00, 0xfc, 0xff, 0x3f, 0xf8, 0xff, 0x1f,
   0x18, 0x63, 0x1a, 0x18, 0x30, 0x0c, 0xc0, 0x39, 0x0c, 0x00, 0x18, 0x00,
   0xfc, 0xff, 0x3f, 0xf0, 0xff, 0x0f, 0x18, 0xc6, 0x30, 0xf8, 0xff, 0x7f,
   0xf8, 0xff, 0x0f, 0x00, 0x30, 0x00, 0x00, 0x7e, 0x00, 0x18, 0x18, 0x18,
   0x98, 0x63, 0x1a, 0x18, 0x30, 0x0c, 0x80, 0x1f, 0x06, 0xfc, 0xff, 0x7f,
   0x80, 0x01, 0x06, 0x30, 0x18, 0x0c, 0x18, 0xc6, 0x30, 0x18, 0x63, 0x00,
   0x18, 0x00, 0x00, 0xfe, 0xff, 0x7f, 0x00, 0xdf, 0x00, 0x18, 0x18, 0x18,
   0xd8, 0xe1, 0x1b, 0xf8, 0x33, 0x06, 0x00, 0x0f, 0x07, 0xfc, 0xff, 0x7f,
   0x80, 0x01, 0x06, 0xf0, 0xff, 0x0f, 0xd8, 0xc7, 0x30, 0x18, 0xc3, 0x10,
   0x18, 0x00, 0x00, 0xfe, 0xff, 0x7f, 0x00, 0xdb, 0x00, 0x18, 0x18, 0x18,
   0x98, 0xc0, 0x19, 0xf8, 0x63, 0x06, 0x80, 0x87, 0x03, 0x00, 0x18, 0x00,
   0x80, 0x01, 0x06, 0xf0, 0xff, 0x0f, 0xfc, 0xc7, 0x30, 0x18, 0xc3, 0x38,
   0x18, 0x00, 0x00, 0x00, 0x30, 0x00, 0x80, 0x99, 0x01, 0xf8, 0xff, 0x1f,
   0x18, 0x00, 0x18, 0x18, 0x60, 0x03, 0xc0, 0xc1, 0x01, 0x00, 0x18, 0x00,
   0x80, 0x01, 0x06, 0x30, 0x18, 0x0c, 0x3e, 0xc6, 0x30, 0x18, 0xc3, 0x1e,
   0x18, 0x00, 0x00, 0x00, 0x30, 0x00, 0xc0, 0x98, 0x03, 0xf8, 0xff, 0x1f,
   0xf8, 0xff, 0x1f, 0x18, 0xe0, 0x03, 0xf0, 0xe0, 0x00, 0x00, 0x18, 0x00,
   0x80, 0x01, 0x06, 0x30, 0x18, 0x0c, 0x04, 0xc7, 0x38, 0x1c, 0x83, 0x07,
   0x18, 0x00, 0x00, 0x00, 0x30, 0x00, 0x70, 0x18, 0x07, 0x18, 0x18, 0x18,
   0xf8, 0xff, 0x1f, 0x18, 0xc0, 0x01, 0x3c, 0xf0, 0x01, 0x00, 0x18, 0x00,
   0x80, 0x01, 0x06, 0xf0, 0xff, 0x0f, 0x00, 0xc3, 0x3c, 0x0c, 0x83, 0x03,
   0x18, 0x00, 0x30, 0x00, 0x30, 0x00, 0x38, 0x18, 0x1e, 0x18, 0x18, 0x18,
   0x18, 0x00, 0x18, 0x0c, 0xe0, 0x21, 0x08, 0xbc, 0x03, 0x00, 0x18, 0x00,
   0x80, 0x01, 0x06, 0xf0, 0xff, 0x0f, 0x80, 0xc3, 0x1c, 0x0c, 0x03, 0x07,
   0x18, 0x00, 0x30, 0x00, 0x30, 0x00, 0x1e, 0x18, 0x78, 0x00, 0x18, 0x00,
   0x18, 0x00, 0x18, 0x0c, 0xf8, 0x63, 0x00, 0x0e, 0x07, 0x00, 0x18, 0x00,
   0xc0, 0x01, 0x06, 0x80, 0x80, 0x01, 0xc0, 0xc1, 0x00, 0x0c, 0x1b, 0x0e,
   0x18, 0x00, 0x30, 0x00, 0x30, 0x00, 0x06, 0x18, 0x60, 0x00, 0x18, 0x00,
   0xf8, 0xff, 0x1f, 0x0c, 0x1e, 0x77, 0x80, 0x07, 0x0e, 0x00, 0x18, 0x00,
   0xfc, 0xff, 0x3f, 0xf8, 0x81, 0x3f, 0x78, 0xc0, 0x00, 0xee, 0x3f, 0x3c,
   0xf0, 0xff, 0x3f, 0x00, 0x30, 0x00, 0x00, 0x18, 0x00, 0x00, 0x18, 0x00,
   0xf8, 0xff, 0x1f, 0x0c, 0x07, 0x3e, 0xe0, 0x01, 0x38, 0x00, 0x1f, 0x00,
   0x00, 0x00, 0x00, 0x7c, 0x00, 0x3e, 0x38, 0xc0, 0x00, 0xe6, 0x03, 0x30,
   0xf0, 0xff, 0x1f, 0x00, 0x30, 0x00, 0x00, 0x18, 0x00, 0x00, 0x18, 0x00,
   0x18, 0x00, 0x18, 0x06, 0x01, 0x3c, 0x60, 0x00, 0x00, 0x00, 0x1f, 0x00,
   0x00, 0x00, 0x00, 0x00, 0x00, 0x00, 0x00, 0x00, 0x00, 0x00, 0x00, 0x00,
   0x00, 0x00, 0x00, 0x00, 0x00, 0x00, 0x00, 0x00, 0x00, 0x00, 0x00, 0x00,
   0x00, 0x00, 0x00, 0x00, 0x00, 0x00, 0x00, 0x00, 0x00, 0x00, 0x00, 0x00 };
