#define rat_width 192
#define rat_height 16
static unsigned char rat_bits[] = {
   0x00, 0x00, 0x00, 0x00, 0x00, 0x00, 0x00, 0x00, 0x00, 0x00, 0x00, 0x00,
   0x00, 0x00, 0x00, 0x00, 0x00, 0x00, 0x00, 0x00, 0x00, 0x00, 0x00, 0x00,
   0x00, 0x00, 0x80, 0x00, 0x40, 0x00, 0x00, 0x20, 0x00, 0x00, 0x30, 0x00,
   0x80, 0x01, 0x80, 0x01, 0x00, 0x00, 0x00, 0x01, 0x80, 0x01, 0x00, 0x00,
   0xfc, 0x0f, 0x84, 0x20, 0x30, 0x7e, 0xf8, 0x3f, 0x08, 0x10, 0x10, 0x00,
   0x80, 0x00, 0x80, 0x00, 0xfe, 0x7f, 0x00, 0x09, 0x80, 0x00, 0x00, 0x18,
   0x40, 0x08, 0x7c, 0x7f, 0x0c, 0x22, 0x08, 0x00, 0xf8, 0x1f, 0x10, 0x10,
   0x80, 0x10, 0x80, 0x30, 0x40, 0x01, 0x00, 0x11, 0x80, 0x60, 0xf0, 0x0f,
   0x40, 0x08, 0x04, 0x10, 0x44, 0x22, 0x08, 0x18, 0x08, 0x10, 0xe8, 0x0f,
   0xf8, 0x0f, 0xf8, 0x1f, 0x40, 0x01, 0x04, 0x7f, 0xfc, 0x1f, 0x00, 0x04,
   0x40, 0x08, 0xf2, 0x0f, 0x44, 0x22, 0xc8, 0x07, 0x08, 0x10, 0x08, 0x01,
   0x80, 0x00, 0x88, 0x10, 0xfc, 0x3f, 0xfc, 0x01, 0x40, 0x04, 0x00, 0x03,
   0x20, 0x04, 0x80, 0x10, 0x44, 0x22, 0x08, 0x00, 0x08, 0x10, 0x04, 0x01,
   0x80, 0x00, 0x88, 0x10, 0x44, 0x21, 0x04, 0x32, 0x28, 0x04, 0x00, 0x01,
   0x20, 0x44, 0xf8, 0x1f, 0x44, 0x22, 0x08, 0x60, 0xf8, 0x1f, 0x00, 0x01,
   0xfe, 0x7f, 0xf8, 0x1f, 0x24, 0x29, 0x04, 0x12, 0x30, 0x02, 0x00, 0x41,
   0xfc, 0x3f, 0x88, 0x10, 0x44, 0x22, 0xf4, 0x1f, 0x08, 0x10, 0x00, 0x61,
   0x80, 0x01, 0x88, 0x10, 0x24, 0x29, 0x84, 0x12, 0x60, 0x11, 0xfe, 0x7f,
   0x20, 0x04, 0xf8, 0x1f, 0x44, 0x22, 0x44, 0x32, 0x08, 0x00, 0xfc, 0x1f,
   0xc0, 0x02, 0x88, 0x10, 0x14, 0x2e, 0x64, 0x0a, 0xc0, 0x08, 0x00, 0x01,
   0x20, 0x04, 0x88, 0x10, 0x7c, 0x22, 0x44, 0x0a, 0x08, 0x00, 0x00, 0x01,
   0xa0, 0x04, 0xf8, 0x1f, 0x04, 0x20, 0x04, 0x04, 0x20, 0x06, 0x00, 0x01,
   0x20, 0x04, 0x88, 0x10, 0x42, 0x3a, 0x44, 0x04, 0x08, 0x20, 0x00, 0x01,
   0x90, 0x18, 0x88, 0x10, 0xfc, 0x3f, 0x04, 0x44, 0x18, 0x03, 0x00, 0x01,
   0x20, 0x04, 0x78, 0x0f, 0x20, 0x22, 0x44, 0x18, 0x08, 0x20, 0x00, 0x01,
   0x88, 0x30, 0x80, 0x00, 0x04, 0x20, 0x04, 0x4a, 0x84, 0x0c, 0x00, 0x01,
   0xfc, 0x3f, 0x30, 0x3e, 0x10, 0x02, 0xe2, 0x73, 0x18, 0x70, 0x00, 0x01,
   0x84, 0x40, 0x80, 0x00, 0x04, 0x20, 0x82, 0x71, 0x60, 0x10, 0x00, 0x01,
   0x00, 0x00, 0x0c, 0x60, 0x08, 0x02, 0x12, 0x40, 0x60, 0x0b, 0x00, 0x01,
   0x82, 0x00, 0x80, 0x00, 0xfc, 0x3f, 0x42, 0x60, 0x1c, 0x10, 0xe0, 0x00,
   0x00, 0x00, 0x00, 0x00, 0x00, 0x00, 0x00, 0x00, 0x00, 0x00, 0x00, 0x00,
   0x00, 0x00, 0x00, 0x00, 0x00, 0x00, 0x00, 0x00, 0x00, 0x00, 0x00, 0x00 };
