#define numbers_width 96
#define numbers_height 16
static unsigned char numbers_bits[] = {
   0x00, 0x00, 0x00, 0x00, 0x00, 0x00, 0x00, 0x00, 0x00, 0x00, 0x00, 0x00,
   0x00, 0x00, 0x00, 0x00, 0x00, 0x00, 0x30, 0x00, 0x00, 0x00, 0x20, 0x00,
   0xfc, 0x3f, 0xfc, 0x3f, 0x80, 0x01, 0x30, 0x00, 0xf0, 0x07, 0x20, 0x00,
   0x44, 0x22, 0x40, 0x00, 0x80, 0x01, 0x30, 0x00, 0x00, 0x04, 0x20, 0x00,
   0x44, 0x22, 0x40, 0x00, 0xfe, 0x7f, 0x30, 0x00, 0x00, 0x04, 0xfc, 0x0f,
   0x44, 0x22, 0x40, 0x00, 0x00, 0x00, 0xb0, 0x7f, 0x10, 0x0c, 0x20, 0x0c,
   0x44, 0x22, 0x40, 0x00, 0x00, 0x00, 0xfe, 0x01, 0x10, 0x0c, 0x20, 0x0c,
   0x64, 0x22, 0xfc, 0x1f, 0x00, 0x00, 0x30, 0x00, 0x10, 0x0c, 0x20, 0x0c,
   0x24, 0x3a, 0x60, 0x10, 0x30, 0x0c, 0x30, 0x00, 0x10, 0x08, 0x20, 0x0c,
   0x34, 0x3a, 0x60, 0x10, 0x10, 0x08, 0x30, 0x00, 0x18, 0x08, 0x30, 0x0c,
   0x14, 0x2e, 0x20, 0x10, 0x18, 0x10, 0x30, 0x00, 0x08, 0x18, 0x30, 0x0c,
   0x04, 0x20, 0x20, 0x10, 0x08, 0x30, 0x30, 0x00, 0x08, 0x10, 0x10, 0x0c,
   0x04, 0x20, 0x20, 0x10, 0x0c, 0x20, 0x30, 0x20, 0x0c, 0x30, 0x18, 0x4c,
   0xfc, 0x3f, 0x20, 0x10, 0x06, 0x60, 0x30, 0x20, 0x06, 0x20, 0x0c, 0x4c,
   0x04, 0x20, 0xfe, 0x7f, 0x00, 0x00, 0xe0, 0x3f, 0x02, 0x60, 0x06, 0x78,
   0x04, 0x20, 0x00, 0x00, 0x00, 0x00, 0x00, 0x00, 0x00, 0x00, 0x00, 0x00 };
